<svg width="70" height="70" viewBox="0 0 70 70" fill="none" xmlns="http://www.w3.org/2000/svg">
<g clip-path="url(#clip0_20_53)">
<path d="M48.475 46.6666H50.6917L55.4167 37.2166V23.3333H43.75V34.9999H54.3083L48.475 46.6666ZM19.3083 46.6666H21.525L26.25 37.2166V23.3333H14.5833V34.9999H25.1417L19.3083 46.6666Z" fill="#59CDB6" fill-opacity="0.3"/>
<path d="M54.3083 52.5L61.25 38.6167V17.5H37.9167V40.8333H44.8583L39.025 52.5H54.3083ZM43.75 35V23.3333H55.4167V37.2167L50.6917 46.6667H48.475L54.3083 35H43.75ZM9.85833 52.5H25.1417L32.0833 38.6167V17.5H8.75V40.8333H15.6917L9.85833 52.5ZM14.5833 35V23.3333H26.25V37.2167L21.525 46.6667H19.3083L25.1417 35H14.5833Z" fill="black"/>
</g>
<defs>
<clipPath id="clip0_20_53">
<rect width="70" height="70" fill="white"/>
</clipPath>
</defs>
</svg>
